<svg width="54" height="18" viewBox="0 0 54 18" fill="none" xmlns="http://www.w3.org/2000/svg">
<g clip-path="url(#clip0_32_249)">
<path d="M15 8.25H5.8725L10.065 4.0575L9 3L3 9L9 15L10.0575 13.9425L5.8725 9.75H15V8.25Z" fill="#DB574D"/>
</g>
<path d="M25.836 4.636L22.68 13H21.42L18.264 4.636H19.428L22.056 11.848L24.684 4.636H25.836ZM29.9014 13.108C29.2854 13.108 28.7254 12.968 28.2214 12.688C27.7254 12.408 27.3334 12.012 27.0454 11.5C26.7654 10.98 26.6254 10.38 26.6254 9.7C26.6254 9.028 26.7694 8.436 27.0574 7.924C27.3534 7.404 27.7534 7.008 28.2574 6.736C28.7614 6.456 29.3254 6.316 29.9494 6.316C30.5734 6.316 31.1374 6.456 31.6414 6.736C32.1454 7.008 32.5414 7.4 32.8294 7.912C33.1254 8.424 33.2734 9.02 33.2734 9.7C33.2734 10.38 33.1214 10.98 32.8174 11.5C32.5214 12.012 32.1174 12.408 31.6054 12.688C31.0934 12.968 30.5254 13.108 29.9014 13.108ZM29.9014 12.148C30.2934 12.148 30.6614 12.056 31.0054 11.872C31.3494 11.688 31.6254 11.412 31.8334 11.044C32.0494 10.676 32.1574 10.228 32.1574 9.7C32.1574 9.172 32.0534 8.724 31.8454 8.356C31.6374 7.988 31.3654 7.716 31.0294 7.54C30.6934 7.356 30.3294 7.264 29.9374 7.264C29.5374 7.264 29.1694 7.356 28.8334 7.54C28.5054 7.716 28.2414 7.988 28.0414 8.356C27.8414 8.724 27.7414 9.172 27.7414 9.7C27.7414 10.236 27.8374 10.688 28.0294 11.056C28.2294 11.424 28.4934 11.7 28.8214 11.884C29.1494 12.06 29.5094 12.148 29.9014 12.148ZM35.8012 4.12V13H34.7092V4.12H35.8012ZM38.9943 7.324V11.2C38.9943 11.52 39.0623 11.748 39.1983 11.884C39.3343 12.012 39.5703 12.076 39.9063 12.076H40.7103V13H39.7263C39.1183 13 38.6623 12.86 38.3583 12.58C38.0543 12.3 37.9023 11.84 37.9023 11.2V7.324H37.0503V6.424H37.9023V4.768H38.9943V6.424H40.7103V7.324H38.9943ZM41.6254 9.688C41.6254 9.016 41.7614 8.428 42.0334 7.924C42.3054 7.412 42.6774 7.016 43.1494 6.736C43.6294 6.456 44.1614 6.316 44.7454 6.316C45.3214 6.316 45.8214 6.44 46.2454 6.688C46.6694 6.936 46.9854 7.248 47.1934 7.624V6.424H48.2974V13H47.1934V11.776C46.9774 12.16 46.6534 12.48 46.2214 12.736C45.7974 12.984 45.3014 13.108 44.7334 13.108C44.1494 13.108 43.6214 12.964 43.1494 12.676C42.6774 12.388 42.3054 11.984 42.0334 11.464C41.7614 10.944 41.6254 10.352 41.6254 9.688ZM47.1934 9.7C47.1934 9.204 47.0934 8.772 46.8934 8.404C46.6934 8.036 46.4214 7.756 46.0774 7.564C45.7414 7.364 45.3694 7.264 44.9614 7.264C44.5534 7.264 44.1814 7.36 43.8454 7.552C43.5094 7.744 43.2414 8.024 43.0414 8.392C42.8414 8.76 42.7414 9.192 42.7414 9.688C42.7414 10.192 42.8414 10.632 43.0414 11.008C43.2414 11.376 43.5094 11.66 43.8454 11.86C44.1814 12.052 44.5534 12.148 44.9614 12.148C45.3694 12.148 45.7414 12.052 46.0774 11.86C46.4214 11.66 46.6934 11.376 46.8934 11.008C47.0934 10.632 47.1934 10.196 47.1934 9.7ZM51.2348 7.492C51.4268 7.116 51.6988 6.824 52.0508 6.616C52.4108 6.408 52.8468 6.304 53.3588 6.304V7.432H53.0708C51.8468 7.432 51.2348 8.096 51.2348 9.424V13H50.1428V6.424H51.2348V7.492Z" fill="#DB574D"/>
<defs>
<clipPath id="clip0_32_249">
<rect width="18" height="18" fill="white"/>
</clipPath>
</defs>
</svg>
