<svg width="143" height="135" viewBox="0 0 143 135" fill="none" xmlns="http://www.w3.org/2000/svg">
<rect y="7.56494" width="117.681" height="117.681" rx="58.8403" fill="#DB574D"/>
<path d="M29.5624 51.6833V54.9453H33.1184V55.9953H29.5624V59.3553H33.5384V60.4053H28.2884V50.6333H33.5384V51.6833H29.5624ZM43.1381 60.4053H41.8641L36.7401 52.6353V60.4053H35.4661V50.6333H36.7401L41.8641 58.3893V50.6333H43.1381V60.4053ZM51.3159 50.6473V51.6833H48.6559V60.4053H47.3819V51.6833H44.7079V50.6473H51.3159ZM58.0221 60.4053L55.6981 56.4153H54.1581V60.4053H52.8841V50.6473H56.0341C56.7714 50.6473 57.3921 50.7733 57.8961 51.0253C58.4094 51.2773 58.7921 51.6179 59.0441 52.0473C59.2961 52.4766 59.4221 52.9666 59.4221 53.5173C59.4221 54.1893 59.2261 54.7819 58.8341 55.2953C58.4514 55.8086 57.8728 56.1493 57.0981 56.3173L59.5481 60.4053H58.0221ZM54.1581 55.3933H56.0341C56.7248 55.3933 57.2428 55.2253 57.5881 54.8893C57.9334 54.5439 58.1061 54.0866 58.1061 53.5173C58.1061 52.9386 57.9334 52.4906 57.5881 52.1733C57.2521 51.8559 56.7341 51.6973 56.0341 51.6973H54.1581V55.3933ZM62.6757 51.6833V54.9453H66.2317V55.9953H62.6757V59.3553H66.6517V60.4053H61.4017V50.6333H66.6517V51.6833H62.6757ZM73.5858 51.6833V54.9453H77.1418V55.9953H73.5858V59.3553H77.5618V60.4053H72.3118V50.6333H77.5618V51.6833H73.5858ZM89.3876 50.7173V60.4053H88.1136V53.1813L84.8936 60.4053H83.9976L80.7636 53.1673V60.4053H79.4896V50.7173H80.8616L84.4456 58.7253L88.0296 50.7173H89.3876ZM25.8163 76.5193C25.8163 75.5673 26.031 74.7133 26.4603 73.9573C26.8896 73.1919 27.473 72.5946 28.2103 72.1653C28.957 71.7359 29.783 71.5213 30.6883 71.5213C31.7523 71.5213 32.681 71.7779 33.4743 72.2913C34.2676 72.8046 34.8463 73.5326 35.2103 74.4753H33.6843C33.4136 73.8873 33.0216 73.4346 32.5083 73.1173C32.0043 72.7999 31.3976 72.6413 30.6883 72.6413C30.007 72.6413 29.3956 72.7999 28.8543 73.1173C28.313 73.4346 27.8883 73.8873 27.5803 74.4753C27.2723 75.0539 27.1183 75.7353 27.1183 76.5193C27.1183 77.2939 27.2723 77.9753 27.5803 78.5633C27.8883 79.1419 28.313 79.5899 28.8543 79.9073C29.3956 80.2246 30.007 80.3833 30.6883 80.3833C31.3976 80.3833 32.0043 80.2293 32.5083 79.9213C33.0216 79.6039 33.4136 79.1513 33.6843 78.5633H35.2103C34.8463 79.4966 34.2676 80.2199 33.4743 80.7333C32.681 81.2373 31.7523 81.4893 30.6883 81.4893C29.783 81.4893 28.957 81.2793 28.2103 80.8593C27.473 80.4299 26.8896 79.8373 26.4603 79.0813C26.031 78.3253 25.8163 77.4713 25.8163 76.5193ZM41.5307 81.5033C40.6254 81.5033 39.7994 81.2933 39.0527 80.8733C38.3061 80.4439 37.7134 79.8513 37.2747 79.0953C36.8454 78.3299 36.6307 77.4713 36.6307 76.5193C36.6307 75.5673 36.8454 74.7133 37.2747 73.9573C37.7134 73.1919 38.3061 72.5993 39.0527 72.1793C39.7994 71.7499 40.6254 71.5353 41.5307 71.5353C42.4454 71.5353 43.2761 71.7499 44.0227 72.1793C44.7694 72.5993 45.3574 73.1873 45.7867 73.9433C46.2161 74.6993 46.4307 75.5579 46.4307 76.5193C46.4307 77.4806 46.2161 78.3393 45.7867 79.0953C45.3574 79.8513 44.7694 80.4439 44.0227 80.8733C43.2761 81.2933 42.4454 81.5033 41.5307 81.5033ZM41.5307 80.3973C42.2121 80.3973 42.8234 80.2386 43.3647 79.9213C43.9154 79.6039 44.3447 79.1513 44.6527 78.5633C44.9701 77.9753 45.1287 77.2939 45.1287 76.5193C45.1287 75.7353 44.9701 75.0539 44.6527 74.4753C44.3447 73.8873 43.9201 73.4346 43.3787 73.1173C42.8374 72.7999 42.2214 72.6413 41.5307 72.6413C40.8401 72.6413 40.2241 72.7999 39.6827 73.1173C39.1414 73.4346 38.7121 73.8873 38.3947 74.4753C38.0867 75.0539 37.9327 75.7353 37.9327 76.5193C37.9327 77.2939 38.0867 77.9753 38.3947 78.5633C38.7121 79.1513 39.1414 79.6039 39.6827 79.9213C40.2334 80.2386 40.8494 80.3973 41.5307 80.3973ZM55.7846 81.4053H54.5106L49.3866 73.6353V81.4053H48.1126V71.6333H49.3866L54.5106 79.3893V71.6333H55.7846V81.4053ZM63.9623 71.6473V72.6833H61.3023V81.4053H60.0283V72.6833H57.3543V71.6473H63.9623ZM71.2986 79.2353H67.0426L66.2586 81.4053H64.9146L68.4426 71.7033H69.9126L73.4266 81.4053H72.0826L71.2986 79.2353ZM70.9346 78.1993L69.1706 73.2713L67.4066 78.1993H70.9346ZM80.9702 71.6473V72.6833H78.3102V81.4053H77.0362V72.6833H74.3622V71.6473H80.9702ZM86.9624 81.5033C86.057 81.5033 85.231 81.2933 84.4844 80.8733C83.7377 80.4439 83.145 79.8513 82.7064 79.0953C82.277 78.3299 82.0624 77.4713 82.0624 76.5193C82.0624 75.5673 82.277 74.7133 82.7064 73.9573C83.145 73.1919 83.7377 72.5993 84.4844 72.1793C85.231 71.7499 86.057 71.5353 86.9624 71.5353C87.877 71.5353 88.7077 71.7499 89.4544 72.1793C90.201 72.5993 90.789 73.1873 91.2184 73.9433C91.6477 74.6993 91.8624 75.5579 91.8624 76.5193C91.8624 77.4806 91.6477 78.3393 91.2184 79.0953C90.789 79.8513 90.201 80.4439 89.4544 80.8733C88.7077 81.2933 87.877 81.5033 86.9624 81.5033ZM86.9624 80.3973C87.6437 80.3973 88.255 80.2386 88.7964 79.9213C89.347 79.6039 89.7764 79.1513 90.0844 78.5633C90.4017 77.9753 90.5604 77.2939 90.5604 76.5193C90.5604 75.7353 90.4017 75.0539 90.0844 74.4753C89.7764 73.8873 89.3517 73.4346 88.8104 73.1173C88.269 72.7999 87.653 72.6413 86.9624 72.6413C86.2717 72.6413 85.6557 72.7999 85.1144 73.1173C84.573 73.4346 84.1437 73.8873 83.8264 74.4753C83.5184 75.0539 83.3644 75.7353 83.3644 76.5193C83.3644 77.2939 83.5184 77.9753 83.8264 78.5633C84.1437 79.1513 84.573 79.6039 85.1144 79.9213C85.665 80.2386 86.281 80.3973 86.9624 80.3973Z" fill="white"/>
<path d="M142.5 67.2461C142.5 104.109 112.596 133.992 75.7059 133.992C38.8162 133.992 8.91174 104.109 8.91174 67.2461C8.91174 30.3836 38.8162 0.5 75.7059 0.5C112.596 0.5 142.5 30.3836 142.5 67.2461Z" stroke="#DB574D"/>
</svg>
