<svg width="242" height="120" viewBox="0 0 242 120" fill="none" xmlns="http://www.w3.org/2000/svg">
<circle cx="60" cy="60" r="59.5" fill="#DB574D" stroke="#DB574D"/>
<path fill-rule="evenodd" clip-rule="evenodd" d="M62.6214 27.5C57.3747 27.5 53.1214 31.7533 53.1214 37V43.8107H31.0874C25.8407 43.8107 21.5874 48.064 21.5874 53.3107V63.3835V66.3835V97.1165C21.5874 102.363 25.8407 106.617 31.0874 106.617H55.5H56.9893C62.7906 111.129 70.0815 113.816 78 113.816C96.9171 113.816 112.252 98.4802 112.252 79.5631C112.252 74.8926 111.318 70.4404 109.625 66.3835H119H120.5V63.3835H119H108.5H108.198C102.422 52.6257 91.0652 45.3107 78 45.3107C64.9349 45.3107 53.5782 52.6257 47.8022 63.3835H47.5H24.5874V53.3107C24.5874 49.7208 27.4976 46.8107 31.0874 46.8107H54.6214H56.1214V45.8544V43.8107V37C56.1214 33.4101 59.0315 30.5 62.6214 30.5H92.2913C95.8811 30.5 98.7913 33.4101 98.7913 37L98.7913 43.8107L98.7913 45.8544L98.7913 46.8107H100.291H117.5H119V43.8107H117.5H101.791V37C101.791 31.7533 97.538 27.5 92.2913 27.5H62.6214ZM29.1991 36.4369C29.1991 34.5039 30.7661 32.9369 32.6991 32.9369H47.1845C49.1175 32.9369 50.6845 34.5039 50.6845 36.4369V42.0485H47.6845V36.4369C47.6845 36.1608 47.4606 35.9369 47.1845 35.9369H32.6991C32.4229 35.9369 32.1991 36.1608 32.1991 36.4369V42.0485H29.1991V36.4369ZM24.5874 66.3835V97.1165C24.5874 100.706 27.4976 103.617 31.0874 103.617H53.6143C47.5132 97.4317 43.7476 88.9371 43.7476 79.5631C43.7476 74.8926 44.6824 70.4404 46.3751 66.3835H24.5874ZM109.252 79.5631C109.252 96.8233 95.2603 110.816 78 110.816C60.7398 110.816 46.7476 96.8233 46.7476 79.5631C46.7476 62.3029 60.7398 48.3107 78 48.3107C95.2603 48.3107 109.252 62.3029 109.252 79.5631ZM77.4563 98.8544C88.4109 98.8544 97.2913 89.974 97.2913 79.0194C97.2913 68.0649 88.4109 59.1845 77.4563 59.1845C66.5018 59.1845 57.6214 68.0649 57.6214 79.0194C57.6214 89.974 66.5018 98.8544 77.4563 98.8544ZM77.4563 101.854C90.0677 101.854 100.291 91.6308 100.291 79.0194C100.291 66.408 90.0677 56.1845 77.4563 56.1845C64.8449 56.1845 54.6214 66.408 54.6214 79.0194C54.6214 91.6308 64.8449 101.854 77.4563 101.854Z" fill="#EEEDEE"/>
<path d="M134.333 57L128.173 24.6H133.893L137.733 47L141.333 24.6H147.293L141.133 57H134.333ZM150.711 57V24.6H157.271V57H150.711ZM170.633 57.44C168.633 57.44 166.966 57.08 165.633 56.36C164.3 55.6133 163.286 54.5067 162.593 53.04C161.926 51.5467 161.54 49.6533 161.433 47.36L167.113 46.4C167.166 47.7333 167.3 48.8533 167.513 49.76C167.753 50.64 168.1 51.3067 168.553 51.76C169.033 52.1867 169.62 52.4 170.313 52.4C171.166 52.4 171.74 52.1333 172.033 51.6C172.353 51.0667 172.513 50.4533 172.513 49.76C172.513 48.4 172.18 47.2667 171.513 46.36C170.873 45.4267 170.02 44.4933 168.953 43.56L165.593 40.64C164.393 39.6267 163.406 38.48 162.633 37.2C161.886 35.92 161.513 34.3467 161.513 32.48C161.513 29.8133 162.286 27.7733 163.833 26.36C165.406 24.92 167.553 24.2 170.273 24.2C171.9 24.2 173.233 24.4667 174.273 25C175.313 25.5333 176.113 26.2533 176.673 27.16C177.26 28.04 177.66 29.0133 177.873 30.08C178.113 31.12 178.26 32.16 178.313 33.2L172.673 34.04C172.62 33.0533 172.526 32.1867 172.393 31.44C172.286 30.6933 172.046 30.1067 171.673 29.68C171.326 29.2533 170.793 29.04 170.073 29.04C169.3 29.04 168.726 29.3333 168.353 29.92C167.98 30.48 167.793 31.1067 167.793 31.8C167.793 32.9467 168.046 33.8933 168.553 34.64C169.086 35.36 169.806 36.12 170.713 36.92L173.993 39.8C175.353 40.9733 176.513 42.32 177.473 43.84C178.46 45.3333 178.953 47.1867 178.953 49.4C178.953 50.92 178.606 52.2933 177.913 53.52C177.22 54.7467 176.246 55.7067 174.993 56.4C173.766 57.0933 172.313 57.44 170.633 57.44ZM191.548 57.44C189.095 57.44 187.188 57.0267 185.828 56.2C184.468 55.3467 183.508 54.1333 182.948 52.56C182.415 50.96 182.148 49.0267 182.148 46.76V24.6H188.668V47.68C188.668 48.48 188.722 49.2667 188.828 50.04C188.962 50.8133 189.228 51.44 189.628 51.92C190.055 52.4 190.695 52.64 191.548 52.64C192.428 52.64 193.068 52.4 193.468 51.92C193.895 51.44 194.162 50.8133 194.268 50.04C194.375 49.2667 194.428 48.48 194.428 47.68V24.6H200.948V46.76C200.948 49.0267 200.668 50.96 200.108 52.56C199.575 54.1333 198.628 55.3467 197.268 56.2C195.908 57.0267 194.002 57.44 191.548 57.44ZM203.719 57L209.999 24.6H217.319L223.559 57H217.439L216.279 49.88H211.159L209.919 57H203.719ZM211.759 45.84H215.639L213.679 32.76L211.759 45.84ZM226.842 57V24.6H233.442V52.52H241.042V57H226.842Z" fill="#BBBBBB"/>
<path d="M164.137 94.008H161.193V107H150.441V67.256H163.433C167.998 67.256 171.39 68.3013 173.609 70.392C175.828 72.4827 176.937 75.9173 176.937 80.696C176.937 85.4747 175.892 88.888 173.801 90.936C171.71 92.984 168.489 94.008 164.137 94.008ZM165.353 85.368C165.737 84.6427 165.929 83.3413 165.929 81.464C165.929 79.5867 165.716 78.264 165.289 77.496C164.862 76.728 164.009 76.344 162.729 76.344H161.193V86.456H162.985C164.18 86.456 164.969 86.0933 165.353 85.368ZM191.649 107H180.769V67.256H191.649V107ZM207.797 87.544C207.797 91.2987 208.16 93.9867 208.885 95.608C209.653 97.1867 210.89 97.976 212.597 97.976C214.304 97.976 216.714 97.5707 219.829 96.76L221.493 105.784C218.122 107.021 214.73 107.64 211.317 107.64C206.197 107.64 202.464 105.955 200.117 102.584C197.813 99.1707 196.661 94.1147 196.661 87.416C196.661 80.6747 197.877 75.5333 200.309 71.992C202.741 68.408 206.709 66.616 212.213 66.616C215.456 66.616 218.549 67.2987 221.493 68.664L219.765 78.584C216.437 77.4747 214.112 76.92 212.789 76.92C210.912 76.92 209.61 77.752 208.885 79.416C208.16 81.0373 207.797 83.7467 207.797 87.544Z" fill="#DB574D"/>
</svg>
