<svg width="30" height="30" viewBox="0 0 30 30" fill="none" xmlns="http://www.w3.org/2000/svg">
<g clip-path="url(#clip0_60_534)">
<path d="M14.876 29.875C23.0234 29.875 29.6281 23.2152 29.6281 15C29.6281 6.78476 23.0234 0.125 14.876 0.125C6.72869 0.125 0.123962 6.78476 0.123962 15C0.123962 23.2152 6.72869 29.875 14.876 29.875Z" fill="#DB574D" stroke="#DB574D"/>
<path fill-rule="evenodd" clip-rule="evenodd" d="M15.526 6.875C14.2251 6.875 13.1706 7.93833 13.1706 9.25V10.9527H7.70761C6.40677 10.9527 5.35223 12.016 5.35223 13.3277V15.8459V16.5959V24.2791C5.35223 25.5908 6.40677 26.6542 7.70761 26.6542H13.7603H14.1296C15.5679 27.7822 17.3756 28.454 19.3388 28.454C24.029 28.454 27.8311 24.6201 27.8311 19.8908C27.8311 18.7232 27.5995 17.6101 27.1797 16.5959H29.5041H29.876V15.8459H29.5041H26.9008H26.8259C25.3939 13.1564 22.5781 11.3277 19.3388 11.3277C16.0995 11.3277 13.2838 13.1564 11.8518 15.8459H11.7768H6.09604V13.3277C6.09604 12.4302 6.81757 11.7027 7.70761 11.7027H13.5425H13.9144V11.4636V10.9527V9.25C13.9144 8.35252 14.6359 7.625 15.526 7.625H22.8821C23.7722 7.625 24.4937 8.35252 24.4937 9.25V10.9527V11.4636V11.7027H24.8655H29.1322H29.5041V10.9527H29.1322H25.2374V9.25C25.2374 7.93833 24.183 6.875 22.8821 6.875H15.526ZM7.23943 9.10923C7.23943 8.62598 7.62794 8.23423 8.1072 8.23423H11.6986C12.1779 8.23423 12.5664 8.62598 12.5664 9.10923V10.5121H11.8226V9.10923C11.8226 9.0402 11.7671 8.98423 11.6986 8.98423H8.1072C8.03872 8.98423 7.98323 9.0402 7.98323 9.10923V10.5121H7.23943V9.10923ZM6.09604 16.5959V24.2791C6.09604 25.1765 6.81757 25.9042 7.70761 25.9042H13.2928C11.7801 24.3579 10.8465 22.2343 10.8465 19.8908C10.8465 18.7232 11.0783 17.6101 11.4979 16.5959H6.09604ZM27.0873 19.8908C27.0873 24.2058 23.6182 27.704 19.3388 27.704C15.0594 27.704 11.5903 24.2058 11.5903 19.8908C11.5903 15.5757 15.0594 12.0777 19.3388 12.0777C23.6182 12.0777 27.0873 15.5757 27.0873 19.8908ZM19.204 24.7136C21.92 24.7136 24.1218 22.4935 24.1218 19.7549C24.1218 17.0162 21.92 14.7961 19.204 14.7961C16.488 14.7961 14.2863 17.0162 14.2863 19.7549C14.2863 22.4935 16.488 24.7136 19.204 24.7136ZM19.204 25.4635C22.3308 25.4635 24.8655 22.9077 24.8655 19.7549C24.8655 16.602 22.3308 14.0461 19.204 14.0461C16.0772 14.0461 13.5425 16.602 13.5425 19.7549C13.5425 22.9077 16.0772 25.4635 19.204 25.4635Z" fill="#EEEDEE"/>
</g>
<defs>
<clipPath id="clip0_60_534">
<rect width="30" height="30" fill="white"/>
</clipPath>
</defs>
</svg>
