<svg width="143" height="135" viewBox="0 0 143 135" fill="none" xmlns="http://www.w3.org/2000/svg">
<rect y="7.56519" width="117.681" height="117.681" rx="58.8403" fill="#DB574D"/>
<path d="M29.5624 51.6835V54.9455H33.1184V55.9955H29.5624V59.3555H33.5384V60.4055H28.2884V50.6335H33.5384V51.6835H29.5624ZM43.1381 60.4055H41.8641L36.7401 52.6355V60.4055H35.4661V50.6335H36.7401L41.8641 58.3895V50.6335H43.1381V60.4055ZM51.3159 50.6475V51.6835H48.6559V60.4055H47.3819V51.6835H44.7079V50.6475H51.3159ZM58.0221 60.4055L55.6981 56.4155H54.1581V60.4055H52.8841V50.6475H56.0341C56.7714 50.6475 57.3921 50.7735 57.8961 51.0255C58.4094 51.2775 58.7921 51.6182 59.0441 52.0475C59.2961 52.4769 59.4221 52.9669 59.4221 53.5175C59.4221 54.1895 59.2261 54.7822 58.8341 55.2955C58.4514 55.8089 57.8728 56.1495 57.0981 56.3175L59.5481 60.4055H58.0221ZM54.1581 55.3935H56.0341C56.7248 55.3935 57.2428 55.2255 57.5881 54.8895C57.9334 54.5442 58.1061 54.0869 58.1061 53.5175C58.1061 52.9389 57.9334 52.4909 57.5881 52.1735C57.2521 51.8562 56.7341 51.6975 56.0341 51.6975H54.1581V55.3935ZM62.6757 51.6835V54.9455H66.2317V55.9955H62.6757V59.3555H66.6517V60.4055H61.4017V50.6335H66.6517V51.6835H62.6757ZM73.5858 51.6835V54.9455H77.1418V55.9955H73.5858V59.3555H77.5618V60.4055H72.3118V50.6335H77.5618V51.6835H73.5858ZM89.3876 50.7175V60.4055H88.1136V53.1815L84.8936 60.4055H83.9976L80.7636 53.1675V60.4055H79.4896V50.7175H80.8616L84.4456 58.7255L88.0296 50.7175H89.3876ZM25.8163 76.5195C25.8163 75.5675 26.031 74.7135 26.4603 73.9575C26.8896 73.1922 27.473 72.5949 28.2103 72.1655C28.957 71.7362 29.783 71.5215 30.6883 71.5215C31.7523 71.5215 32.681 71.7782 33.4743 72.2915C34.2676 72.8049 34.8463 73.5329 35.2103 74.4755H33.6843C33.4136 73.8875 33.0216 73.4349 32.5083 73.1175C32.0043 72.8002 31.3976 72.6415 30.6883 72.6415C30.007 72.6415 29.3956 72.8002 28.8543 73.1175C28.313 73.4349 27.8883 73.8875 27.5803 74.4755C27.2723 75.0542 27.1183 75.7355 27.1183 76.5195C27.1183 77.2942 27.2723 77.9755 27.5803 78.5635C27.8883 79.1422 28.313 79.5902 28.8543 79.9075C29.3956 80.2249 30.007 80.3835 30.6883 80.3835C31.3976 80.3835 32.0043 80.2295 32.5083 79.9215C33.0216 79.6042 33.4136 79.1515 33.6843 78.5635H35.2103C34.8463 79.4969 34.2676 80.2202 33.4743 80.7335C32.681 81.2375 31.7523 81.4895 30.6883 81.4895C29.783 81.4895 28.957 81.2795 28.2103 80.8595C27.473 80.4302 26.8896 79.8375 26.4603 79.0815C26.031 78.3255 25.8163 77.4715 25.8163 76.5195ZM41.5307 81.5035C40.6254 81.5035 39.7994 81.2935 39.0527 80.8735C38.3061 80.4442 37.7134 79.8515 37.2747 79.0955C36.8454 78.3302 36.6307 77.4715 36.6307 76.5195C36.6307 75.5675 36.8454 74.7135 37.2747 73.9575C37.7134 73.1922 38.3061 72.5995 39.0527 72.1795C39.7994 71.7502 40.6254 71.5355 41.5307 71.5355C42.4454 71.5355 43.2761 71.7502 44.0227 72.1795C44.7694 72.5995 45.3574 73.1875 45.7867 73.9435C46.2161 74.6995 46.4307 75.5582 46.4307 76.5195C46.4307 77.4809 46.2161 78.3395 45.7867 79.0955C45.3574 79.8515 44.7694 80.4442 44.0227 80.8735C43.2761 81.2935 42.4454 81.5035 41.5307 81.5035ZM41.5307 80.3975C42.2121 80.3975 42.8234 80.2389 43.3647 79.9215C43.9154 79.6042 44.3447 79.1515 44.6527 78.5635C44.9701 77.9755 45.1287 77.2942 45.1287 76.5195C45.1287 75.7355 44.9701 75.0542 44.6527 74.4755C44.3447 73.8875 43.9201 73.4349 43.3787 73.1175C42.8374 72.8002 42.2214 72.6415 41.5307 72.6415C40.8401 72.6415 40.2241 72.8002 39.6827 73.1175C39.1414 73.4349 38.7121 73.8875 38.3947 74.4755C38.0867 75.0542 37.9327 75.7355 37.9327 76.5195C37.9327 77.2942 38.0867 77.9755 38.3947 78.5635C38.7121 79.1515 39.1414 79.6042 39.6827 79.9215C40.2334 80.2389 40.8494 80.3975 41.5307 80.3975ZM55.7846 81.4055H54.5106L49.3866 73.6355V81.4055H48.1126V71.6335H49.3866L54.5106 79.3895V71.6335H55.7846V81.4055ZM63.9623 71.6475V72.6835H61.3023V81.4055H60.0283V72.6835H57.3543V71.6475H63.9623ZM71.2986 79.2355H67.0426L66.2586 81.4055H64.9146L68.4426 71.7035H69.9126L73.4266 81.4055H72.0826L71.2986 79.2355ZM70.9346 78.1995L69.1706 73.2715L67.4066 78.1995H70.9346ZM80.9702 71.6475V72.6835H78.3102V81.4055H77.0362V72.6835H74.3622V71.6475H80.9702ZM86.9624 81.5035C86.057 81.5035 85.231 81.2935 84.4844 80.8735C83.7377 80.4442 83.145 79.8515 82.7064 79.0955C82.277 78.3302 82.0624 77.4715 82.0624 76.5195C82.0624 75.5675 82.277 74.7135 82.7064 73.9575C83.145 73.1922 83.7377 72.5995 84.4844 72.1795C85.231 71.7502 86.057 71.5355 86.9624 71.5355C87.877 71.5355 88.7077 71.7502 89.4544 72.1795C90.201 72.5995 90.789 73.1875 91.2184 73.9435C91.6477 74.6995 91.8624 75.5582 91.8624 76.5195C91.8624 77.4809 91.6477 78.3395 91.2184 79.0955C90.789 79.8515 90.201 80.4442 89.4544 80.8735C88.7077 81.2935 87.877 81.5035 86.9624 81.5035ZM86.9624 80.3975C87.6437 80.3975 88.255 80.2389 88.7964 79.9215C89.347 79.6042 89.7764 79.1515 90.0844 78.5635C90.4017 77.9755 90.5604 77.2942 90.5604 76.5195C90.5604 75.7355 90.4017 75.0542 90.0844 74.4755C89.7764 73.8875 89.3517 73.4349 88.8104 73.1175C88.269 72.8002 87.653 72.6415 86.9624 72.6415C86.2717 72.6415 85.6557 72.8002 85.1144 73.1175C84.573 73.4349 84.1437 73.8875 83.8264 74.4755C83.5184 75.0542 83.3644 75.7355 83.3644 76.5195C83.3644 77.2942 83.5184 77.9755 83.8264 78.5635C84.1437 79.1515 84.573 79.6042 85.1144 79.9215C85.665 80.2389 86.281 80.3975 86.9624 80.3975Z" fill="white"/>
<path d="M142.5 67.2461C142.5 104.109 112.596 133.992 75.7059 133.992C38.8162 133.992 8.91174 104.109 8.91174 67.2461C8.91174 30.3836 38.8162 0.5 75.7059 0.5C112.596 0.5 142.5 30.3836 142.5 67.2461Z" stroke="#DB574D"/>
</svg>
