<svg width="267" height="92" viewBox="0 0 267 92" fill="none" xmlns="http://www.w3.org/2000/svg">
<g filter="url(#filter0_d_32_142)">
<rect x="4" y="5.6026" width="71.5959" height="71.5959" rx="35.798" fill="#DB574D"/>
<path d="M14.7026 28.9245V31.7205H17.7506V32.6205H14.7026V35.5005H18.1106V36.4005H13.6106V28.0245H18.1106V28.9245H14.7026ZM26.339 36.4005H25.247L20.855 29.7405V36.4005H19.763V28.0245H20.855L25.247 34.6725V28.0245H26.339V36.4005ZM33.3485 28.0365V28.9245H31.0685V36.4005H29.9765V28.9245H27.6845V28.0365H33.3485ZM39.0967 36.4005L37.1047 32.9805H35.7847V36.4005H34.6927V28.0365H37.3927C38.0247 28.0365 38.5567 28.1445 38.9887 28.3605C39.4287 28.5765 39.7567 28.8685 39.9727 29.2365C40.1887 29.6045 40.2967 30.0245 40.2967 30.4965C40.2967 31.0725 40.1287 31.5805 39.7927 32.0205C39.4647 32.4605 38.9687 32.7525 38.3047 32.8965L40.4047 36.4005H39.0967ZM35.7847 32.1045H37.3927C37.9847 32.1045 38.4287 31.9605 38.7247 31.6725C39.0207 31.3765 39.1687 30.9845 39.1687 30.4965C39.1687 30.0005 39.0207 29.6165 38.7247 29.3445C38.4367 29.0725 37.9927 28.9365 37.3927 28.9365H35.7847V32.1045ZM43.0854 28.9245V31.7205H46.1334V32.6205H43.0854V35.5005H46.4934V36.4005H41.9934V28.0245H46.4934V28.9245H43.0854ZM52.437 28.9245V31.7205H55.485V32.6205H52.437V35.5005H55.845V36.4005H51.345V28.0245H55.845V28.9245H52.437ZM65.9813 28.0965V36.4005H64.8893V30.2085L62.1293 36.4005H61.3613L58.5893 30.1965V36.4005H57.4973V28.0965H58.6733L61.7453 34.9605L64.8173 28.0965H65.9813ZM11.4917 50.2125C11.4917 49.3965 11.6757 48.6645 12.0437 48.0165C12.4117 47.3605 12.9117 46.8485 13.5437 46.4805C14.1837 46.1125 14.8917 45.9285 15.6677 45.9285C16.5797 45.9285 17.3757 46.1485 18.0557 46.5885C18.7357 47.0285 19.2317 47.6525 19.5437 48.4605H18.2357C18.0037 47.9565 17.6677 47.5685 17.2277 47.2965C16.7957 47.0245 16.2757 46.8885 15.6677 46.8885C15.0837 46.8885 14.5597 47.0245 14.0957 47.2965C13.6317 47.5685 13.2677 47.9565 13.0037 48.4605C12.7397 48.9565 12.6077 49.5405 12.6077 50.2125C12.6077 50.8765 12.7397 51.4605 13.0037 51.9645C13.2677 52.4605 13.6317 52.8445 14.0957 53.1165C14.5597 53.3885 15.0837 53.5245 15.6677 53.5245C16.2757 53.5245 16.7957 53.3925 17.2277 53.1285C17.6677 52.8565 18.0037 52.4685 18.2357 51.9645H19.5437C19.2317 52.7645 18.7357 53.3845 18.0557 53.8245C17.3757 54.2565 16.5797 54.4725 15.6677 54.4725C14.8917 54.4725 14.1837 54.2925 13.5437 53.9325C12.9117 53.5645 12.4117 53.0565 12.0437 52.4085C11.6757 51.7605 11.4917 51.0285 11.4917 50.2125ZM24.9612 54.4845C24.1852 54.4845 23.4772 54.3045 22.8372 53.9445C22.1972 53.5765 21.6892 53.0685 21.3132 52.4205C20.9452 51.7645 20.7612 51.0285 20.7612 50.2125C20.7612 49.3965 20.9452 48.6645 21.3132 48.0165C21.6892 47.3605 22.1972 46.8525 22.8372 46.4925C23.4772 46.1245 24.1852 45.9405 24.9612 45.9405C25.7452 45.9405 26.4572 46.1245 27.0972 46.4925C27.7372 46.8525 28.2412 47.3565 28.6092 48.0045C28.9772 48.6525 29.1612 49.3885 29.1612 50.2125C29.1612 51.0365 28.9772 51.7725 28.6092 52.4205C28.2412 53.0685 27.7372 53.5765 27.0972 53.9445C26.4572 54.3045 25.7452 54.4845 24.9612 54.4845ZM24.9612 53.5365C25.5452 53.5365 26.0692 53.4005 26.5332 53.1285C27.0052 52.8565 27.3732 52.4685 27.6372 51.9645C27.9092 51.4605 28.0452 50.8765 28.0452 50.2125C28.0452 49.5405 27.9092 48.9565 27.6372 48.4605C27.3732 47.9565 27.0092 47.5685 26.5452 47.2965C26.0812 47.0245 25.5532 46.8885 24.9612 46.8885C24.3692 46.8885 23.8412 47.0245 23.3772 47.2965C22.9132 47.5685 22.5452 47.9565 22.2732 48.4605C22.0092 48.9565 21.8772 49.5405 21.8772 50.2125C21.8772 50.8765 22.0092 51.4605 22.2732 51.9645C22.5452 52.4685 22.9132 52.8565 23.3772 53.1285C23.8492 53.4005 24.3772 53.5365 24.9612 53.5365ZM37.1788 54.4005H36.0868L31.6948 47.7405V54.4005H30.6028V46.0245H31.6948L36.0868 52.6725V46.0245H37.1788V54.4005ZM44.1883 46.0365V46.9245H41.9083V54.4005H40.8163V46.9245H38.5243V46.0365H44.1883ZM50.4765 52.5405H46.8285L46.1565 54.4005H45.0045L48.0285 46.0845H49.2885L52.3005 54.4005H51.1485L50.4765 52.5405ZM50.1645 51.6525L48.6525 47.4285L47.1405 51.6525H50.1645ZM58.7664 46.0365V46.9245H56.4864V54.4005H55.3944V46.9245H53.1024V46.0365H58.7664ZM63.9026 54.4845C63.1266 54.4845 62.4186 54.3045 61.7786 53.9445C61.1386 53.5765 60.6306 53.0685 60.2546 52.4205C59.8866 51.7645 59.7026 51.0285 59.7026 50.2125C59.7026 49.3965 59.8866 48.6645 60.2546 48.0165C60.6306 47.3605 61.1386 46.8525 61.7786 46.4925C62.4186 46.1245 63.1266 45.9405 63.9026 45.9405C64.6866 45.9405 65.3986 46.1245 66.0386 46.4925C66.6786 46.8525 67.1826 47.3565 67.5506 48.0045C67.9186 48.6525 68.1026 49.3885 68.1026 50.2125C68.1026 51.0365 67.9186 51.7725 67.5506 52.4205C67.1826 53.0685 66.6786 53.5765 66.0386 53.9445C65.3986 54.3045 64.6866 54.4845 63.9026 54.4845ZM63.9026 53.5365C64.4866 53.5365 65.0106 53.4005 65.4746 53.1285C65.9466 52.8565 66.3146 52.4685 66.5786 51.9645C66.8506 51.4605 66.9866 50.8765 66.9866 50.2125C66.9866 49.5405 66.8506 48.9565 66.5786 48.4605C66.3146 47.9565 65.9506 47.5685 65.4866 47.2965C65.0226 47.0245 64.4946 46.8885 63.9026 46.8885C63.3106 46.8885 62.7826 47.0245 62.3186 47.2965C61.8546 47.5685 61.4866 47.9565 61.2146 48.4605C60.9506 48.9565 60.8186 49.5405 60.8186 50.2125C60.8186 50.8765 60.9506 51.4605 61.2146 51.9645C61.4866 52.4685 61.8546 52.8565 62.3186 53.1285C62.7906 53.4005 63.3186 53.5365 63.9026 53.5365Z" fill="white"/>
<path d="M90.5 41.9119C90.5 64.2305 72.3942 82.3239 50.0588 82.3239C27.7235 82.3239 9.61765 64.2305 9.61765 41.9119C9.61765 19.5934 27.7235 1.5 50.0588 1.5C72.3942 1.5 90.5 19.5934 90.5 41.9119Z" stroke="#DB574D"/>
<path d="M138.405 55.272V67.632C138.405 69.008 137.981 70.112 137.133 70.944C136.285 71.76 135.165 72.168 133.773 72.168C132.365 72.168 131.237 71.752 130.389 70.92C129.541 70.072 129.117 68.92 129.117 67.464H131.301C131.317 68.28 131.525 68.944 131.925 69.456C132.341 69.968 132.957 70.224 133.773 70.224C134.589 70.224 135.197 69.984 135.597 69.504C135.997 69.008 136.197 68.384 136.197 67.632V55.272H138.405ZM144.843 55.272V65.856C144.843 67.344 145.203 68.448 145.923 69.168C146.659 69.888 147.675 70.248 148.971 70.248C150.251 70.248 151.251 69.888 151.971 69.168C152.707 68.448 153.075 67.344 153.075 65.856V55.272H155.259V65.832C155.259 67.224 154.979 68.4 154.419 69.36C153.859 70.304 153.099 71.008 152.139 71.472C151.195 71.936 150.131 72.168 148.947 72.168C147.763 72.168 146.691 71.936 145.731 71.472C144.787 71.008 144.035 70.304 143.475 69.36C142.931 68.4 142.659 67.224 142.659 65.832V55.272H144.843ZM172.055 72H169.871L161.087 58.68V72H158.903V55.248H161.087L169.871 68.544V55.248H172.055V72ZM186.074 55.272V57.048H181.514V72H179.33V57.048H174.746V55.272H186.074ZM196.346 72.168C194.794 72.168 193.378 71.808 192.098 71.088C190.818 70.352 189.802 69.336 189.05 68.04C188.314 66.728 187.946 65.256 187.946 63.624C187.946 61.992 188.314 60.528 189.05 59.232C189.802 57.92 190.818 56.904 192.098 56.184C193.378 55.448 194.794 55.08 196.346 55.08C197.914 55.08 199.338 55.448 200.618 56.184C201.898 56.904 202.906 57.912 203.642 59.208C204.378 60.504 204.746 61.976 204.746 63.624C204.746 65.272 204.378 66.744 203.642 68.04C202.906 69.336 201.898 70.352 200.618 71.088C199.338 71.808 197.914 72.168 196.346 72.168ZM196.346 70.272C197.514 70.272 198.562 70 199.49 69.456C200.434 68.912 201.17 68.136 201.698 67.128C202.242 66.12 202.514 64.952 202.514 63.624C202.514 62.28 202.242 61.112 201.698 60.12C201.17 59.112 200.442 58.336 199.514 57.792C198.586 57.248 197.53 56.976 196.346 56.976C195.162 56.976 194.106 57.248 193.178 57.792C192.25 58.336 191.514 59.112 190.97 60.12C190.442 61.112 190.178 62.28 190.178 63.624C190.178 64.952 190.442 66.12 190.97 67.128C191.514 68.136 192.25 68.912 193.178 69.456C194.122 70 195.178 70.272 196.346 70.272ZM212.933 72.168C211.829 72.168 210.837 71.976 209.957 71.592C209.093 71.192 208.413 70.648 207.917 69.96C207.421 69.256 207.165 68.448 207.149 67.536H209.477C209.557 68.32 209.877 68.984 210.437 69.528C211.013 70.056 211.845 70.32 212.933 70.32C213.973 70.32 214.789 70.064 215.381 69.552C215.989 69.024 216.293 68.352 216.293 67.536C216.293 66.896 216.117 66.376 215.765 65.976C215.413 65.576 214.973 65.272 214.445 65.064C213.917 64.856 213.205 64.632 212.309 64.392C211.205 64.104 210.317 63.816 209.645 63.528C208.989 63.24 208.421 62.792 207.941 62.184C207.477 61.56 207.245 60.728 207.245 59.688C207.245 58.776 207.477 57.968 207.941 57.264C208.405 56.56 209.053 56.016 209.885 55.632C210.733 55.248 211.701 55.056 212.789 55.056C214.357 55.056 215.637 55.448 216.629 56.232C217.637 57.016 218.205 58.056 218.333 59.352H215.933C215.853 58.712 215.517 58.152 214.925 57.672C214.333 57.176 213.549 56.928 212.573 56.928C211.661 56.928 210.917 57.168 210.341 57.648C209.765 58.112 209.477 58.768 209.477 59.616C209.477 60.224 209.645 60.72 209.981 61.104C210.333 61.488 210.757 61.784 211.253 61.992C211.765 62.184 212.477 62.408 213.389 62.664C214.493 62.968 215.381 63.272 216.053 63.576C216.725 63.864 217.301 64.32 217.781 64.944C218.261 65.552 218.501 66.384 218.501 67.44C218.501 68.256 218.285 69.024 217.853 69.744C217.421 70.464 216.781 71.048 215.933 71.496C215.085 71.944 214.085 72.168 212.933 72.168Z" fill="#DB574D"/>
<path d="M220 82H128V84H220V82Z" fill="#DB574D" mask="url(#path-4-outside-1_32_142)"/>
<path d="M145.664 3.272L139.352 20H136.832L130.52 3.272H132.848L138.104 17.696L143.36 3.272H145.664ZM157.947 16.28H150.651L149.307 20H147.003L153.051 3.368H155.571L161.595 20H159.291L157.947 16.28ZM157.323 14.504L154.299 6.056L151.275 14.504H157.323ZM181.199 3.392V20H179.015V7.616L173.495 20H171.959L166.415 7.592V20H164.231V3.392H166.583L172.727 17.12L178.871 3.392H181.199ZM192.487 20.168C190.935 20.168 189.519 19.808 188.239 19.088C186.959 18.352 185.943 17.336 185.191 16.04C184.455 14.728 184.087 13.256 184.087 11.624C184.087 9.992 184.455 8.528 185.191 7.232C185.943 5.92 186.959 4.904 188.239 4.184C189.519 3.448 190.935 3.08 192.487 3.08C194.055 3.08 195.479 3.448 196.759 4.184C198.039 4.904 199.047 5.912 199.783 7.208C200.519 8.504 200.887 9.976 200.887 11.624C200.887 13.272 200.519 14.744 199.783 16.04C199.047 17.336 198.039 18.352 196.759 19.088C195.479 19.808 194.055 20.168 192.487 20.168ZM192.487 18.272C193.655 18.272 194.703 18 195.631 17.456C196.575 16.912 197.311 16.136 197.839 15.128C198.383 14.12 198.655 12.952 198.655 11.624C198.655 10.28 198.383 9.112 197.839 8.12C197.311 7.112 196.583 6.336 195.655 5.792C194.727 5.248 193.671 4.976 192.487 4.976C191.303 4.976 190.247 5.248 189.319 5.792C188.391 6.336 187.655 7.112 187.111 8.12C186.583 9.112 186.319 10.28 186.319 11.624C186.319 12.952 186.583 14.12 187.111 15.128C187.655 16.136 188.391 16.912 189.319 17.456C190.263 18 191.319 18.272 192.487 18.272ZM209.074 20.168C207.97 20.168 206.978 19.976 206.098 19.592C205.234 19.192 204.554 18.648 204.058 17.96C203.562 17.256 203.306 16.448 203.29 15.536H205.618C205.698 16.32 206.018 16.984 206.578 17.528C207.154 18.056 207.986 18.32 209.074 18.32C210.114 18.32 210.93 18.064 211.522 17.552C212.13 17.024 212.434 16.352 212.434 15.536C212.434 14.896 212.258 14.376 211.906 13.976C211.554 13.576 211.114 13.272 210.586 13.064C210.058 12.856 209.346 12.632 208.45 12.392C207.346 12.104 206.458 11.816 205.786 11.528C205.13 11.24 204.562 10.792 204.082 10.184C203.618 9.56 203.386 8.728 203.386 7.688C203.386 6.776 203.618 5.968 204.082 5.264C204.546 4.56 205.194 4.016 206.026 3.632C206.874 3.248 207.842 3.056 208.93 3.056C210.498 3.056 211.778 3.448 212.77 4.232C213.778 5.016 214.346 6.056 214.474 7.352H212.074C211.994 6.712 211.658 6.152 211.066 5.672C210.474 5.176 209.69 4.928 208.714 4.928C207.802 4.928 207.058 5.168 206.482 5.648C205.906 6.112 205.618 6.768 205.618 7.616C205.618 8.224 205.786 8.72 206.122 9.104C206.474 9.488 206.898 9.784 207.394 9.992C207.906 10.184 208.618 10.408 209.53 10.664C210.634 10.968 211.522 11.272 212.194 11.576C212.866 11.864 213.442 12.32 213.922 12.944C214.402 13.552 214.642 14.384 214.642 15.44C214.642 16.256 214.426 17.024 213.994 17.744C213.562 18.464 212.922 19.048 212.074 19.496C211.226 19.944 210.226 20.168 209.074 20.168ZM118.945 27.272V29.048H114.385V44H112.201V29.048H107.617V27.272H118.945ZM130.441 44L126.457 37.16H123.817V44H121.633V27.272H127.033C128.297 27.272 129.361 27.488 130.225 27.92C131.105 28.352 131.761 28.936 132.193 29.672C132.625 30.408 132.841 31.248 132.841 32.192C132.841 33.344 132.505 34.36 131.833 35.24C131.177 36.12 130.185 36.704 128.857 36.992L133.057 44H130.441ZM123.817 35.408H127.033C128.217 35.408 129.105 35.12 129.697 34.544C130.289 33.952 130.585 33.168 130.585 32.192C130.585 31.2 130.289 30.432 129.697 29.888C129.121 29.344 128.233 29.072 127.033 29.072H123.817V35.408ZM146.123 40.28H138.827L137.483 44H135.179L141.227 27.368H143.747L149.771 44H147.467L146.123 40.28ZM145.499 38.504L142.475 30.056L139.451 38.504H145.499ZM160.783 35.384C161.391 35.48 161.943 35.728 162.439 36.128C162.951 36.528 163.351 37.024 163.639 37.616C163.943 38.208 164.095 38.84 164.095 39.512C164.095 40.36 163.879 41.128 163.447 41.816C163.015 42.488 162.383 43.024 161.551 43.424C160.735 43.808 159.767 44 158.647 44H152.407V27.272H158.407C159.543 27.272 160.511 27.464 161.311 27.848C162.111 28.216 162.711 28.72 163.111 29.36C163.511 30 163.711 30.72 163.711 31.52C163.711 32.512 163.439 33.336 162.895 33.992C162.367 34.632 161.663 35.096 160.783 35.384ZM154.591 34.496H158.263C159.287 34.496 160.079 34.256 160.639 33.776C161.199 33.296 161.479 32.632 161.479 31.784C161.479 30.936 161.199 30.272 160.639 29.792C160.079 29.312 159.271 29.072 158.215 29.072H154.591V34.496ZM158.455 42.2C159.543 42.2 160.391 41.944 160.999 41.432C161.607 40.92 161.911 40.208 161.911 39.296C161.911 38.368 161.591 37.64 160.951 37.112C160.311 36.568 159.455 36.296 158.383 36.296H154.591V42.2H158.455ZM177.013 40.28H169.717L168.373 44H166.069L172.117 27.368H174.637L180.661 44H178.357L177.013 40.28ZM176.389 38.504L173.365 30.056L170.341 38.504H176.389ZM185.481 42.224H191.337V44H183.297V27.272H185.481V42.224ZM206.545 27.272V44H204.361V36.416H195.841V44H193.657V27.272H195.841V34.616H204.361V27.272H206.545ZM220.162 40.28H212.866L211.522 44H209.218L215.266 27.368H217.786L223.81 44H221.506L220.162 40.28ZM219.538 38.504L216.514 30.056L213.49 38.504H219.538ZM235.254 44L231.27 37.16H228.63V44H226.446V27.272H231.846C233.11 27.272 234.174 27.488 235.038 27.92C235.918 28.352 236.574 28.936 237.006 29.672C237.438 30.408 237.654 31.248 237.654 32.192C237.654 33.344 237.318 34.36 236.646 35.24C235.99 36.12 234.998 36.704 233.67 36.992L237.87 44H235.254ZM228.63 35.408H231.846C233.03 35.408 233.918 35.12 234.51 34.544C235.102 33.952 235.398 33.168 235.398 32.192C235.398 31.2 235.102 30.432 234.51 29.888C233.934 29.344 233.046 29.072 231.846 29.072H228.63V35.408Z" fill="black"/>
</g>
<defs>
<filter id="filter0_d_32_142" x="0" y="0" width="271" height="92" filterUnits="userSpaceOnUse" color-interpolation-filters="sRGB">
<feFlood flood-opacity="0" result="BackgroundImageFix"/>
<feColorMatrix in="SourceAlpha" type="matrix" values="0 0 0 0 0 0 0 0 0 0 0 0 0 0 0 0 0 0 127 0" result="hardAlpha"/>
<feOffset dy="4"/>
<feGaussianBlur stdDeviation="2"/>
<feComposite in2="hardAlpha" operator="out"/>
<feColorMatrix type="matrix" values="0 0 0 0 0 0 0 0 0 0 0 0 0 0 0 0 0 0 0.25 0"/>
<feBlend mode="normal" in2="BackgroundImageFix" result="effect1_dropShadow_32_142"/>
<feBlend mode="normal" in="SourceGraphic" in2="effect1_dropShadow_32_142" result="shape"/>
</filter>
</defs>
</svg>
