<svg width="402" height="135" viewBox="0 0 402 135" fill="none" xmlns="http://www.w3.org/2000/svg">
<rect y="7.56519" width="117.681" height="117.681" rx="58.8403" fill="#DB574D"/>
<path d="M29.5624 51.6835V54.9455H33.1184V55.9955H29.5624V59.3555H33.5384V60.4055H28.2884V50.6335H33.5384V51.6835H29.5624ZM43.1381 60.4055H41.8641L36.7401 52.6355V60.4055H35.4661V50.6335H36.7401L41.8641 58.3895V50.6335H43.1381V60.4055ZM51.3159 50.6475V51.6835H48.6559V60.4055H47.3819V51.6835H44.7079V50.6475H51.3159ZM58.0221 60.4055L55.6981 56.4155H54.1581V60.4055H52.8841V50.6475H56.0341C56.7714 50.6475 57.3921 50.7735 57.8961 51.0255C58.4094 51.2775 58.7921 51.6182 59.0441 52.0475C59.2961 52.4769 59.4221 52.9669 59.4221 53.5175C59.4221 54.1895 59.2261 54.7822 58.8341 55.2955C58.4514 55.8089 57.8728 56.1495 57.0981 56.3175L59.5481 60.4055H58.0221ZM54.1581 55.3935H56.0341C56.7248 55.3935 57.2428 55.2255 57.5881 54.8895C57.9334 54.5442 58.1061 54.0869 58.1061 53.5175C58.1061 52.9389 57.9334 52.4909 57.5881 52.1735C57.2521 51.8562 56.7341 51.6975 56.0341 51.6975H54.1581V55.3935ZM62.6757 51.6835V54.9455H66.2317V55.9955H62.6757V59.3555H66.6517V60.4055H61.4017V50.6335H66.6517V51.6835H62.6757ZM73.5858 51.6835V54.9455H77.1418V55.9955H73.5858V59.3555H77.5618V60.4055H72.3118V50.6335H77.5618V51.6835H73.5858ZM89.3876 50.7175V60.4055H88.1136V53.1815L84.8936 60.4055H83.9976L80.7636 53.1675V60.4055H79.4896V50.7175H80.8616L84.4456 58.7255L88.0296 50.7175H89.3876ZM25.8163 76.5195C25.8163 75.5675 26.031 74.7135 26.4603 73.9575C26.8897 73.1922 27.473 72.5949 28.2103 72.1655C28.957 71.7362 29.783 71.5215 30.6883 71.5215C31.7523 71.5215 32.681 71.7782 33.4743 72.2915C34.2677 72.8049 34.8463 73.5329 35.2103 74.4755H33.6843C33.4137 73.8875 33.0217 73.4349 32.5083 73.1175C32.0043 72.8002 31.3977 72.6415 30.6883 72.6415C30.007 72.6415 29.3957 72.8002 28.8543 73.1175C28.313 73.4349 27.8883 73.8875 27.5803 74.4755C27.2723 75.0542 27.1183 75.7355 27.1183 76.5195C27.1183 77.2942 27.2723 77.9755 27.5803 78.5635C27.8883 79.1422 28.313 79.5902 28.8543 79.9075C29.3957 80.2249 30.007 80.3835 30.6883 80.3835C31.3977 80.3835 32.0043 80.2295 32.5083 79.9215C33.0217 79.6042 33.4137 79.1515 33.6843 78.5635H35.2103C34.8463 79.4969 34.2677 80.2202 33.4743 80.7335C32.681 81.2375 31.7523 81.4895 30.6883 81.4895C29.783 81.4895 28.957 81.2795 28.2103 80.8595C27.473 80.4302 26.8897 79.8375 26.4603 79.0815C26.031 78.3255 25.8163 77.4715 25.8163 76.5195ZM41.5308 81.5035C40.6254 81.5035 39.7994 81.2935 39.0528 80.8735C38.3061 80.4442 37.7134 79.8515 37.2748 79.0955C36.8454 78.3302 36.6308 77.4715 36.6308 76.5195C36.6308 75.5675 36.8454 74.7135 37.2748 73.9575C37.7134 73.1922 38.3061 72.5995 39.0528 72.1795C39.7994 71.7502 40.6254 71.5355 41.5308 71.5355C42.4454 71.5355 43.2761 71.7502 44.0228 72.1795C44.7694 72.5995 45.3574 73.1875 45.7868 73.9435C46.2161 74.6995 46.4308 75.5582 46.4308 76.5195C46.4308 77.4809 46.2161 78.3395 45.7868 79.0955C45.3574 79.8515 44.7694 80.4442 44.0228 80.8735C43.2761 81.2935 42.4454 81.5035 41.5308 81.5035ZM41.5308 80.3975C42.2121 80.3975 42.8234 80.2389 43.3648 79.9215C43.9154 79.6042 44.3448 79.1515 44.6528 78.5635C44.9701 77.9755 45.1288 77.2942 45.1288 76.5195C45.1288 75.7355 44.9701 75.0542 44.6528 74.4755C44.3448 73.8875 43.9201 73.4349 43.3788 73.1175C42.8374 72.8002 42.2214 72.6415 41.5308 72.6415C40.8401 72.6415 40.2241 72.8002 39.6828 73.1175C39.1414 73.4349 38.7121 73.8875 38.3948 74.4755C38.0868 75.0542 37.9328 75.7355 37.9328 76.5195C37.9328 77.2942 38.0868 77.9755 38.3948 78.5635C38.7121 79.1515 39.1414 79.6042 39.6828 79.9215C40.2334 80.2389 40.8494 80.3975 41.5308 80.3975ZM55.7846 81.4055H54.5106L49.3866 73.6355V81.4055H48.1126V71.6335H49.3866L54.5106 79.3895V71.6335H55.7846V81.4055ZM63.9624 71.6475V72.6835H61.3024V81.4055H60.0284V72.6835H57.3544V71.6475H63.9624ZM71.2986 79.2355H67.0426L66.2586 81.4055H64.9146L68.4426 71.7035H69.9126L73.4266 81.4055H72.0826L71.2986 79.2355ZM70.9346 78.1995L69.1706 73.2715L67.4066 78.1995H70.9346ZM80.9702 71.6475V72.6835H78.3102V81.4055H77.0362V72.6835H74.3622V71.6475H80.9702ZM86.9624 81.5035C86.0571 81.5035 85.2311 81.2935 84.4844 80.8735C83.7377 80.4442 83.1451 79.8515 82.7064 79.0955C82.2771 78.3302 82.0624 77.4715 82.0624 76.5195C82.0624 75.5675 82.2771 74.7135 82.7064 73.9575C83.1451 73.1922 83.7377 72.5995 84.4844 72.1795C85.2311 71.7502 86.0571 71.5355 86.9624 71.5355C87.8771 71.5355 88.7077 71.7502 89.4544 72.1795C90.2011 72.5995 90.7891 73.1875 91.2184 73.9435C91.6477 74.6995 91.8624 75.5582 91.8624 76.5195C91.8624 77.4809 91.6477 78.3395 91.2184 79.0955C90.7891 79.8515 90.2011 80.4442 89.4544 80.8735C88.7077 81.2935 87.8771 81.5035 86.9624 81.5035ZM86.9624 80.3975C87.6437 80.3975 88.2551 80.2389 88.7964 79.9215C89.3471 79.6042 89.7764 79.1515 90.0844 78.5635C90.4017 77.9755 90.5604 77.2942 90.5604 76.5195C90.5604 75.7355 90.4017 75.0542 90.0844 74.4755C89.7764 73.8875 89.3517 73.4349 88.8104 73.1175C88.2691 72.8002 87.6531 72.6415 86.9624 72.6415C86.2717 72.6415 85.6557 72.8002 85.1144 73.1175C84.5731 73.4349 84.1437 73.8875 83.8264 74.4755C83.5184 75.0542 83.3644 75.7355 83.3644 76.5195C83.3644 77.2942 83.5184 77.9755 83.8264 78.5635C84.1437 79.1515 84.5731 79.6042 85.1144 79.9215C85.6651 80.2389 86.2811 80.3975 86.9624 80.3975Z" fill="white"/>
<path d="M142.5 67.2461C142.5 104.109 112.596 133.992 75.7059 133.992C38.8162 133.992 8.91174 104.109 8.91174 67.2461C8.91174 30.3836 38.8162 0.5 75.7059 0.5C112.596 0.5 142.5 30.3836 142.5 67.2461Z" stroke="#DB574D"/>
<path d="M219.607 90.6541V109.194C219.607 111.258 218.971 112.914 217.699 114.162C216.427 115.386 214.747 115.998 212.659 115.998C210.547 115.998 208.855 115.374 207.583 114.126C206.311 112.854 205.675 111.126 205.675 108.942H208.951C208.975 110.166 209.287 111.162 209.887 111.93C210.511 112.698 211.435 113.082 212.659 113.082C213.883 113.082 214.795 112.722 215.395 112.002C215.995 111.258 216.295 110.322 216.295 109.194V90.6541H219.607ZM229.265 90.6541V106.53C229.265 108.762 229.805 110.418 230.885 111.498C231.989 112.578 233.513 113.118 235.457 113.118C237.377 113.118 238.877 112.578 239.957 111.498C241.061 110.418 241.613 108.762 241.613 106.53V90.6541H244.889V106.494C244.889 108.582 244.469 110.346 243.629 111.786C242.789 113.202 241.649 114.258 240.209 114.954C238.793 115.65 237.197 115.998 235.421 115.998C233.645 115.998 232.037 115.65 230.597 114.954C229.181 114.258 228.053 113.202 227.213 111.786C226.397 110.346 225.989 108.582 225.989 106.494V90.6541H229.265ZM270.082 115.746H266.806L253.63 95.7661V115.746H250.354V90.6181H253.63L266.806 110.562V90.6181H270.082V115.746ZM291.111 90.6541V93.3181H284.271V115.746H280.995V93.3181H274.119V90.6541H291.111ZM306.519 115.998C304.191 115.998 302.067 115.458 300.147 114.378C298.227 113.274 296.703 111.75 295.575 109.806C294.471 107.838 293.919 105.63 293.919 103.182C293.919 100.734 294.471 98.5381 295.575 96.5941C296.703 94.6261 298.227 93.1021 300.147 92.0221C302.067 90.9181 304.191 90.3661 306.519 90.3661C308.871 90.3661 311.007 90.9181 312.927 92.0221C314.847 93.1021 316.359 94.6141 317.463 96.5581C318.567 98.5021 319.119 100.71 319.119 103.182C319.119 105.654 318.567 107.862 317.463 109.806C316.359 111.75 314.847 113.274 312.927 114.378C311.007 115.458 308.871 115.998 306.519 115.998ZM306.519 113.154C308.271 113.154 309.843 112.746 311.235 111.93C312.651 111.114 313.755 109.95 314.547 108.438C315.363 106.926 315.771 105.174 315.771 103.182C315.771 101.166 315.363 99.4141 314.547 97.9261C313.755 96.4141 312.663 95.2501 311.271 94.4341C309.879 93.6181 308.295 93.2101 306.519 93.2101C304.743 93.2101 303.159 93.6181 301.767 94.4341C300.375 95.2501 299.271 96.4141 298.455 97.9261C297.663 99.4141 297.267 101.166 297.267 103.182C297.267 105.174 297.663 106.926 298.455 108.438C299.271 109.95 300.375 111.114 301.767 111.93C303.183 112.746 304.767 113.154 306.519 113.154ZM331.4 115.998C329.744 115.998 328.256 115.71 326.936 115.134C325.64 114.534 324.62 113.718 323.876 112.686C323.132 111.63 322.748 110.418 322.724 109.05H326.216C326.336 110.226 326.816 111.222 327.656 112.038C328.52 112.83 329.768 113.226 331.4 113.226C332.96 113.226 334.184 112.842 335.072 112.074C335.984 111.282 336.44 110.274 336.44 109.05C336.44 108.09 336.176 107.31 335.648 106.71C335.12 106.11 334.46 105.654 333.668 105.342C332.876 105.03 331.808 104.694 330.464 104.334C328.808 103.902 327.476 103.47 326.468 103.038C325.484 102.606 324.632 101.934 323.912 101.022C323.216 100.086 322.868 98.8381 322.868 97.2781C322.868 95.9101 323.216 94.6981 323.912 93.6421C324.608 92.5861 325.58 91.7701 326.828 91.1941C328.1 90.6181 329.552 90.3301 331.184 90.3301C333.536 90.3301 335.456 90.9181 336.944 92.0941C338.456 93.2701 339.308 94.8301 339.5 96.7741H335.9C335.78 95.8141 335.276 94.9741 334.388 94.2541C333.5 93.5101 332.324 93.1381 330.86 93.1381C329.492 93.1381 328.376 93.4981 327.512 94.2181C326.648 94.9141 326.216 95.8981 326.216 97.1701C326.216 98.0821 326.468 98.8261 326.972 99.4021C327.5 99.9781 328.136 100.422 328.88 100.734C329.648 101.022 330.716 101.358 332.084 101.742C333.74 102.198 335.072 102.654 336.08 103.11C337.088 103.542 337.952 104.226 338.672 105.162C339.392 106.074 339.752 107.322 339.752 108.906C339.752 110.13 339.428 111.282 338.78 112.362C338.132 113.442 337.172 114.318 335.9 114.99C334.628 115.662 333.128 115.998 331.4 115.998Z" fill="#DB574D"/>
<path d="M342 129.746H204V131.746H342V129.746Z" fill="#DB574D" mask="url(#path-4-outside-1_47_201)"/>
<path d="M238.496 9.65409L229.028 34.7461H225.248L215.78 9.65409H219.272L227.156 31.2901L235.04 9.65409H238.496ZM256.92 29.1661H245.976L243.96 34.7461H240.504L249.576 9.79809H253.356L262.392 34.7461H258.936L256.92 29.1661ZM255.984 26.5021L251.448 13.8301L246.912 26.5021H255.984ZM291.798 9.83409V34.7461H288.522V16.1701L280.242 34.7461H277.938L269.622 16.1341V34.7461H266.346V9.83409H269.874L279.09 30.4261L288.306 9.83409H291.798ZM308.73 34.9981C306.402 34.9981 304.278 34.4581 302.358 33.3781C300.438 32.2741 298.914 30.7501 297.786 28.8061C296.682 26.8381 296.13 24.6301 296.13 22.1821C296.13 19.7341 296.682 17.5381 297.786 15.5941C298.914 13.6261 300.438 12.1021 302.358 11.0221C304.278 9.91809 306.402 9.36609 308.73 9.36609C311.082 9.36609 313.218 9.91809 315.138 11.0221C317.058 12.1021 318.57 13.6141 319.674 15.5581C320.778 17.5021 321.33 19.7101 321.33 22.1821C321.33 24.6541 320.778 26.8621 319.674 28.8061C318.57 30.7501 317.058 32.2741 315.138 33.3781C313.218 34.4581 311.082 34.9981 308.73 34.9981ZM308.73 32.1541C310.482 32.1541 312.054 31.7461 313.446 30.9301C314.862 30.1141 315.966 28.9501 316.758 27.4381C317.574 25.9261 317.982 24.1741 317.982 22.1821C317.982 20.1661 317.574 18.4141 316.758 16.9261C315.966 15.4141 314.874 14.2501 313.482 13.4341C312.09 12.6181 310.506 12.2101 308.73 12.2101C306.954 12.2101 305.37 12.6181 303.978 13.4341C302.586 14.2501 301.482 15.4141 300.666 16.9261C299.874 18.4141 299.478 20.1661 299.478 22.1821C299.478 24.1741 299.874 25.9261 300.666 27.4381C301.482 28.9501 302.586 30.1141 303.978 30.9301C305.394 31.7461 306.978 32.1541 308.73 32.1541ZM333.611 34.9981C331.955 34.9981 330.467 34.7101 329.147 34.1341C327.851 33.5341 326.831 32.7181 326.087 31.6861C325.343 30.6301 324.959 29.4181 324.935 28.0501H328.427C328.547 29.2261 329.027 30.2221 329.867 31.0381C330.731 31.8301 331.979 32.2261 333.611 32.2261C335.171 32.2261 336.395 31.8421 337.283 31.0741C338.195 30.2821 338.651 29.2741 338.651 28.0501C338.651 27.0901 338.387 26.3101 337.859 25.7101C337.331 25.1101 336.671 24.6541 335.879 24.3421C335.087 24.0301 334.019 23.6941 332.675 23.3341C331.019 22.9021 329.687 22.4701 328.679 22.0381C327.695 21.6061 326.843 20.9341 326.123 20.0221C325.427 19.0861 325.079 17.8381 325.079 16.2781C325.079 14.9101 325.427 13.6981 326.123 12.6421C326.819 11.5861 327.791 10.7701 329.039 10.1941C330.311 9.61809 331.763 9.33009 333.395 9.33009C335.747 9.33009 337.667 9.91809 339.155 11.0941C340.667 12.2701 341.519 13.8301 341.711 15.7741H338.111C337.991 14.8141 337.487 13.9741 336.599 13.2541C335.711 12.5101 334.535 12.1381 333.071 12.1381C331.703 12.1381 330.587 12.4981 329.723 13.2181C328.859 13.9141 328.427 14.8981 328.427 16.1701C328.427 17.0821 328.679 17.8261 329.183 18.4021C329.711 18.9781 330.347 19.4221 331.091 19.7341C331.859 20.0221 332.927 20.3581 334.295 20.7421C335.951 21.1981 337.283 21.6541 338.291 22.1101C339.299 22.5421 340.163 23.2261 340.883 24.1621C341.603 25.0741 341.963 26.3221 341.963 27.9061C341.963 29.1301 341.639 30.2821 340.991 31.3621C340.343 32.4421 339.383 33.3181 338.111 33.9901C336.839 34.6621 335.339 34.9981 333.611 34.9981ZM198.417 45.6541V48.3181H191.577V70.7461H188.301V48.3181H181.425V45.6541H198.417ZM215.662 70.7461L209.686 60.4861H205.726V70.7461H202.45V45.6541H210.55C212.446 45.6541 214.042 45.9781 215.338 46.6261C216.658 47.2741 217.642 48.1501 218.29 49.2541C218.938 50.3581 219.262 51.6181 219.262 53.0341C219.262 54.7621 218.758 56.2861 217.75 57.6061C216.766 58.9261 215.278 59.8021 213.286 60.2341L219.586 70.7461H215.662ZM205.726 57.8581H210.55C212.326 57.8581 213.658 57.4261 214.546 56.5621C215.434 55.6741 215.878 54.4981 215.878 53.0341C215.878 51.5461 215.434 50.3941 214.546 49.5781C213.682 48.7621 212.35 48.3541 210.55 48.3541H205.726V57.8581ZM239.184 65.1661H228.24L226.224 70.7461H222.768L231.84 45.7981H235.62L244.656 70.7461H241.2L239.184 65.1661ZM238.248 62.5021L233.712 49.8301L229.176 62.5021H238.248ZM261.174 57.8221C262.086 57.9661 262.914 58.3381 263.658 58.9381C264.426 59.5381 265.026 60.2821 265.458 61.1701C265.914 62.0581 266.142 63.0061 266.142 64.0141C266.142 65.2861 265.818 66.4381 265.17 67.4701C264.522 68.4781 263.574 69.2821 262.326 69.8821C261.102 70.4581 259.65 70.7461 257.97 70.7461H248.61V45.6541H257.61C259.314 45.6541 260.766 45.9421 261.966 46.5181C263.166 47.0701 264.066 47.8261 264.666 48.7861C265.266 49.7461 265.566 50.8261 265.566 52.0261C265.566 53.5141 265.158 54.7501 264.342 55.7341C263.55 56.6941 262.494 57.3901 261.174 57.8221ZM251.886 56.4901H257.394C258.93 56.4901 260.118 56.1301 260.958 55.4101C261.798 54.6901 262.218 53.6941 262.218 52.4221C262.218 51.1501 261.798 50.1541 260.958 49.4341C260.118 48.7141 258.906 48.3541 257.322 48.3541H251.886V56.4901ZM257.682 68.0461C259.314 68.0461 260.586 67.6621 261.498 66.8941C262.41 66.1261 262.866 65.0581 262.866 63.6901C262.866 62.2981 262.386 61.2061 261.426 60.4141C260.466 59.5981 259.182 59.1901 257.574 59.1901H251.886V68.0461H257.682ZM285.52 65.1661H274.576L272.56 70.7461H269.104L278.176 45.7981H281.956L290.992 70.7461H287.536L285.52 65.1661ZM284.584 62.5021L280.048 49.8301L275.512 62.5021H284.584ZM298.222 68.0821H307.006V70.7461H294.946V45.6541H298.222V68.0821ZM329.817 45.6541V70.7461H326.541V59.3701H313.761V70.7461H310.485V45.6541H313.761V56.6701H326.541V45.6541H329.817ZM350.243 65.1661H339.299L337.283 70.7461H333.827L342.899 45.7981H346.679L355.715 70.7461H352.259L350.243 65.1661ZM349.307 62.5021L344.771 49.8301L340.235 62.5021H349.307ZM372.88 70.7461L366.904 60.4861H362.944V70.7461H359.668V45.6541H367.768C369.664 45.6541 371.26 45.9781 372.556 46.6261C373.876 47.2741 374.86 48.1501 375.508 49.2541C376.156 50.3581 376.48 51.6181 376.48 53.0341C376.48 54.7621 375.976 56.2861 374.968 57.6061C373.984 58.9261 372.496 59.8021 370.504 60.2341L376.804 70.7461H372.88ZM362.944 57.8581H367.768C369.544 57.8581 370.876 57.4261 371.764 56.5621C372.652 55.6741 373.096 54.4981 373.096 53.0341C373.096 51.5461 372.652 50.3941 371.764 49.5781C370.9 48.7621 369.568 48.3541 367.768 48.3541H362.944V57.8581Z" fill="black"/>
</svg>
